<?xml version="1.0" standalone="no"?><!DOCTYPE svg PUBLIC "-//W3C//DTD SVG 1.1//EN" "http://www.w3.org/Graphics/SVG/1.1/DTD/svg11.dtd"><svg class="icon" width="200px" height="200.00px" viewBox="0 0 1024 1024" version="1.1" xmlns="http://www.w3.org/2000/svg"><path fill="#333333" d="M638.848 156.842667l2.261333 2.816c12.8 17.152 28.288 30.293333 51.456 32.853333 92.8 10.24 172.117333 51.2 246.101334 103.978667v11.306666c-77.013333-14.72-146.474667-53.12-226.944-60.373333-105.6-9.514667-150.442667 34.005333-120.362667 131.456l2.517333 7.808c31.744 93.696 26.026667 183.125333-30.933333 263.978667-33.450667 47.488-70.229333 86.528-143.616 84.906666l-9.386667-0.426666c-68.906667-4.522667-137.813333 33.109333-185.258666 90.282666-40.832 49.194667-17.92 102.229333-4.992 155.904-62.72-45.653333-83.754667-112.896-107.946667-178.261333l-7.765333-20.565333C80.810667 726.016 39.893333 444.928 266.197333 311.082667c10.581333-6.272 18.645333-21.717333 19.2-33.194667 4.608-88.746667 40.234667-154.496 131.584-184.832 88.576-29.44 195.285333 32.810667 221.866667 63.786667z"  /></svg>